<?xml version="1.0" standalone="no"?>
<!DOCTYPE svg PUBLIC "-//W3C//DTD SVG 20010904//EN"
 "http://www.w3.org/TR/2001/REC-SVG-20010904/DTD/svg10.dtd">
<svg version="1.0" xmlns="http://www.w3.org/2000/svg"
 width="1024.000000pt" height="1024.000000pt" viewBox="0 0 1024.000000 1024.000000"
 preserveAspectRatio="xMidYMid meet">

<g transform="translate(0.000000,1024.000000) scale(0.100000,-0.100000)"
fill="#000000" stroke="none">
<path d="M1746 8665 c-47 -17 -94 -59 -112 -102 -12 -27 -14 -574 -14 -3477 0
-2416 3 -3453 11 -3473 14 -38 46 -71 91 -94 36 -19 114 -19 3405 -19 l3368 0
35 21 c42 25 65 52 85 98 13 29 15 466 15 3474 l0 3440 -25 43 c-16 27 -44 54
-73 71 l-47 28 -3350 2 c-2827 2 -3356 0 -3389 -12z m1920 -242 c-2 -10 -34
-133 -70 -273 -88 -342 -197 -763 -257 -995 -28 -104 -86 -327 -129 -495 -164
-637 -233 -903 -330 -1270 -35 -129 -82 -309 -105 -400 -24 -91 -73 -277 -109
-415 -36 -137 -83 -320 -105 -405 -22 -85 -90 -346 -151 -580 -61 -234 -138
-526 -170 -650 -32 -124 -73 -277 -89 -340 -17 -63 -75 -285 -128 -493 l-97
-378 -40 3 -41 3 -3 3353 -2 3352 916 0 c867 0 915 -1 910 -17z m1367 -3336
l-1 -3352 -161 -3 -161 -2 1 3355 0 3355 162 0 162 0 -2 -3353z m3377 -2 l0
-3355 -992 0 c-546 0 -988 4 -983 8 6 5 39 14 75 21 126 25 378 121 508 195
312 177 573 463 751 826 132 268 189 542 178 860 -10 309 -85 537 -265 810
-148 224 -346 391 -611 518 l-123 59 109 57 c140 73 295 189 403 302 93 97
182 206 220 269 13 22 26 42 29 45 22 19 135 266 165 357 56 173 70 270 70
488 1 198 -7 263 -50 437 -108 436 -393 841 -777 1105 -96 67 -276 162 -389
207 -124 49 -403 118 -563 139 -16 2 482 5 1108 6 l1137 1 0 -3355z m-2090
2837 c273 -62 478 -162 676 -326 205 -171 350 -376 448 -632 143 -378 121
-821 -60 -1189 -97 -198 -277 -408 -471 -552 -83 -61 -247 -151 -318 -173 -22
-7 -44 -15 -48 -17 -5 -3 45 -27 111 -53 143 -56 223 -100 332 -180 278 -207
455 -490 527 -845 25 -125 25 -442 0 -568 -60 -297 -204 -570 -416 -784 -180
-183 -461 -333 -739 -394 -90 -20 -131 -22 -594 -26 l-498 -5 0 186 0 185 498
3 c474 4 501 5 575 26 200 55 353 140 485 266 111 106 171 188 238 321 75 152
104 269 111 452 11 270 -49 487 -195 708 -200 303 -525 495 -922 544 -47 6
-243 11 -437 11 l-353 0 0 184 0 184 433 5 c476 5 499 7 686 76 377 138 691
505 767 896 24 122 23 322 0 435 -62 290 -215 535 -441 703 -96 72 -180 115
-303 156 -170 57 -220 61 -703 61 l-439 0 0 186 0 185 478 -3 c448 -4 483 -5
572 -26z m-291 -782 c287 -30 498 -171 616 -415 46 -96 65 -177 65 -281 0
-125 -22 -213 -79 -329 -82 -164 -186 -271 -336 -346 -133 -65 -207 -79 -432
-79 l-193 0 0 730 0 730 129 0 c71 0 174 -5 230 -10z m-2029 -2315 l0 -805
-211 0 c-196 0 -210 1 -205 18 3 9 59 231 125 492 155 615 282 1100 288 1100
2 0 3 -362 3 -805z m2156 -395 c244 -61 437 -241 520 -486 36 -107 45 -293 19
-409 -37 -167 -153 -335 -296 -431 -141 -94 -234 -114 -520 -114 l-209 0 0
730 0 730 203 0 c170 0 217 -3 283 -20z m-2154 -1975 l3 -720 -487 -3 c-393
-2 -488 0 -488 11 0 12 345 1400 355 1425 3 10 71 12 309 10 l304 -3 4 -720z"/>
</g>
</svg>
